<mxfile host="app.diagrams.net" agent="Mozilla/5.0 (Macintosh; Intel Mac OS X 10_15_7) AppleWebKit/537.36 (KHTML, like Gecko) Chrome/140.0.0.0 Safari/537.36 Edg/140.0.0.0" version="28.2.3">
  <diagram name="第 1 页" id="rEljCT_Y-zP5lgajZ8wB">
    <mxGraphModel dx="994" dy="565" grid="1" gridSize="10" guides="1" tooltips="1" connect="1" arrows="1" fold="1" page="1" pageScale="1" pageWidth="1169" pageHeight="827" math="0" shadow="0">
      <root>
        <mxCell id="0" />
        <mxCell id="1" parent="0" />
        <mxCell id="97wuvhwzOYMbEKujjGsB-1" value="" style="rounded=0;whiteSpace=wrap;html=1;fillColor=#f5f5f5;fontColor=#333333;strokeColor=#666666;" vertex="1" parent="1">
          <mxGeometry x="500" y="205" width="610" height="280" as="geometry" />
        </mxCell>
        <mxCell id="97wuvhwzOYMbEKujjGsB-2" value="&lt;font style=&quot;font-size: 20px&quot;&gt;JVM虚拟机&lt;/font&gt;" style="text;html=1;strokeColor=none;fillColor=none;align=center;verticalAlign=middle;whiteSpace=wrap;rounded=0;" vertex="1" parent="1">
          <mxGeometry x="729" y="215" width="150" height="30" as="geometry" />
        </mxCell>
        <mxCell id="97wuvhwzOYMbEKujjGsB-3" value="" style="rounded=0;whiteSpace=wrap;html=1;fontSize=20;fillColor=#dae8fc;strokeColor=#6c8ebf;" vertex="1" parent="1">
          <mxGeometry x="530" y="255" width="400" height="210" as="geometry" />
        </mxCell>
        <mxCell id="97wuvhwzOYMbEKujjGsB-4" style="edgeStyle=none;html=1;exitX=0;exitY=0.5;exitDx=0;exitDy=0;fontSize=12;" edge="1" parent="1" source="97wuvhwzOYMbEKujjGsB-5">
          <mxGeometry relative="1" as="geometry">
            <mxPoint x="930" y="315" as="targetPoint" />
          </mxGeometry>
        </mxCell>
        <mxCell id="97wuvhwzOYMbEKujjGsB-5" value="&lt;font style=&quot;font-size: 12px&quot;&gt;类装载子系统&lt;/font&gt;" style="rounded=0;whiteSpace=wrap;html=1;fontSize=20;" vertex="1" parent="1">
          <mxGeometry x="960" y="285" width="120" height="60" as="geometry" />
        </mxCell>
        <mxCell id="97wuvhwzOYMbEKujjGsB-6" style="edgeStyle=none;html=1;exitX=0;exitY=0.5;exitDx=0;exitDy=0;entryX=1;entryY=0.75;entryDx=0;entryDy=0;fontSize=16;" edge="1" parent="1" source="97wuvhwzOYMbEKujjGsB-7" target="97wuvhwzOYMbEKujjGsB-3">
          <mxGeometry relative="1" as="geometry" />
        </mxCell>
        <mxCell id="97wuvhwzOYMbEKujjGsB-7" value="字节码执行引擎" style="rounded=0;whiteSpace=wrap;html=1;fontSize=12;" vertex="1" parent="1">
          <mxGeometry x="960" y="385" width="120" height="60" as="geometry" />
        </mxCell>
        <mxCell id="97wuvhwzOYMbEKujjGsB-8" value="&lt;font style=&quot;font-size: 16px&quot;&gt;内存模型（运行时数据区）&lt;/font&gt;" style="text;html=1;strokeColor=none;fillColor=none;align=center;verticalAlign=middle;whiteSpace=wrap;rounded=0;fontSize=20;" vertex="1" parent="1">
          <mxGeometry x="640" y="255" width="230" height="30" as="geometry" />
        </mxCell>
        <mxCell id="97wuvhwzOYMbEKujjGsB-9" value="&lt;b&gt;&lt;font style=&quot;font-size: 14px;&quot;&gt;堆&lt;/font&gt;&lt;/b&gt;" style="rounded=0;whiteSpace=wrap;html=1;fontSize=12;fillColor=#fff2cc;strokeColor=#d6b656;verticalAlign=top;" vertex="1" parent="1">
          <mxGeometry x="540" y="295" width="120" height="80" as="geometry" />
        </mxCell>
        <mxCell id="97wuvhwzOYMbEKujjGsB-10" value="本地方法栈" style="rounded=0;whiteSpace=wrap;html=1;fontSize=12;fillColor=#b1ddf0;strokeColor=#10739e;" vertex="1" parent="1">
          <mxGeometry x="800" y="295" width="120" height="60" as="geometry" />
        </mxCell>
        <mxCell id="97wuvhwzOYMbEKujjGsB-11" value="栈" style="rounded=0;whiteSpace=wrap;html=1;fontSize=12;fillColor=#b1ddf0;strokeColor=#10739e;" vertex="1" parent="1">
          <mxGeometry x="670" y="295" width="120" height="60" as="geometry" />
        </mxCell>
        <mxCell id="97wuvhwzOYMbEKujjGsB-12" value="方法区" style="rounded=0;whiteSpace=wrap;html=1;fontSize=12;fillColor=#fff2cc;strokeColor=#d6b656;" vertex="1" parent="1">
          <mxGeometry x="540" y="385" width="120" height="60" as="geometry" />
        </mxCell>
        <mxCell id="97wuvhwzOYMbEKujjGsB-13" value="程序计数器" style="rounded=0;whiteSpace=wrap;html=1;fontSize=12;fillColor=#b1ddf0;strokeColor=#10739e;" vertex="1" parent="1">
          <mxGeometry x="670" y="385" width="250" height="60" as="geometry" />
        </mxCell>
        <mxCell id="97wuvhwzOYMbEKujjGsB-14" style="edgeStyle=none;html=1;exitX=0.5;exitY=1;exitDx=0;exitDy=0;fontSize=12;" edge="1" parent="1" source="97wuvhwzOYMbEKujjGsB-15" target="97wuvhwzOYMbEKujjGsB-5">
          <mxGeometry relative="1" as="geometry" />
        </mxCell>
        <mxCell id="97wuvhwzOYMbEKujjGsB-15" value="&lt;font style=&quot;font-size: 12px&quot;&gt;java 运行类&lt;/font&gt;" style="rounded=0;whiteSpace=wrap;html=1;fontSize=20;" vertex="1" parent="1">
          <mxGeometry x="960" y="135" width="120" height="60" as="geometry" />
        </mxCell>
        <mxCell id="97wuvhwzOYMbEKujjGsB-16" value="" style="rounded=0;whiteSpace=wrap;html=1;fillColor=#e1d5e7;strokeColor=#9673a6;" vertex="1" parent="1">
          <mxGeometry x="30" y="60" width="200" height="505" as="geometry" />
        </mxCell>
        <mxCell id="97wuvhwzOYMbEKujjGsB-17" value="&lt;font style=&quot;font-size: 14px;&quot;&gt;一个main线程&lt;/font&gt;" style="text;html=1;strokeColor=none;fillColor=none;align=center;verticalAlign=middle;whiteSpace=wrap;rounded=0;" vertex="1" parent="1">
          <mxGeometry x="80" y="65" width="100" height="30" as="geometry" />
        </mxCell>
        <mxCell id="97wuvhwzOYMbEKujjGsB-18" value="" style="rounded=0;whiteSpace=wrap;html=1;fillColor=#f5f5f5;fontColor=#333333;strokeColor=#666666;" vertex="1" parent="1">
          <mxGeometry x="50" y="105" width="160" height="430" as="geometry" />
        </mxCell>
        <mxCell id="97wuvhwzOYMbEKujjGsB-19" value="&lt;font style=&quot;font-size: 16px;&quot;&gt;&lt;b&gt;栈&lt;/b&gt;&lt;/font&gt;（这一线程专属）" style="text;html=1;strokeColor=none;fillColor=none;align=center;verticalAlign=middle;whiteSpace=wrap;rounded=0;" vertex="1" parent="1">
          <mxGeometry x="80" y="105" width="120" height="30" as="geometry" />
        </mxCell>
        <mxCell id="97wuvhwzOYMbEKujjGsB-20" value="" style="rounded=0;whiteSpace=wrap;html=1;fillColor=#dae8fc;strokeColor=#6c8ebf;" vertex="1" parent="1">
          <mxGeometry x="60" y="138" width="140" height="197" as="geometry" />
        </mxCell>
        <mxCell id="97wuvhwzOYMbEKujjGsB-21" style="edgeStyle=orthogonalEdgeStyle;rounded=0;orthogonalLoop=1;jettySize=auto;html=1;exitX=1;exitY=0.5;exitDx=0;exitDy=0;entryX=0;entryY=0.5;entryDx=0;entryDy=0;curved=1;" edge="1" parent="1" source="97wuvhwzOYMbEKujjGsB-22" target="97wuvhwzOYMbEKujjGsB-29">
          <mxGeometry relative="1" as="geometry" />
        </mxCell>
        <mxCell id="97wuvhwzOYMbEKujjGsB-22" value="局部变量表" style="rounded=0;whiteSpace=wrap;html=1;fillColor=#ffe6cc;strokeColor=#d79b00;" vertex="1" parent="1">
          <mxGeometry x="70" y="176" width="120" height="29" as="geometry" />
        </mxCell>
        <mxCell id="97wuvhwzOYMbEKujjGsB-23" value="方法出口" style="rounded=0;whiteSpace=wrap;html=1;" vertex="1" parent="1">
          <mxGeometry x="70" y="295" width="120" height="29" as="geometry" />
        </mxCell>
        <mxCell id="97wuvhwzOYMbEKujjGsB-24" value="动态链接" style="rounded=0;whiteSpace=wrap;html=1;" vertex="1" parent="1">
          <mxGeometry x="70" y="255" width="120" height="29" as="geometry" />
        </mxCell>
        <mxCell id="97wuvhwzOYMbEKujjGsB-25" style="edgeStyle=orthogonalEdgeStyle;rounded=0;orthogonalLoop=1;jettySize=auto;html=1;exitX=1;exitY=0.5;exitDx=0;exitDy=0;entryX=0;entryY=0.5;entryDx=0;entryDy=0;curved=1;" edge="1" parent="1" source="97wuvhwzOYMbEKujjGsB-26" target="97wuvhwzOYMbEKujjGsB-30">
          <mxGeometry relative="1" as="geometry" />
        </mxCell>
        <mxCell id="97wuvhwzOYMbEKujjGsB-26" value="操作数栈" style="rounded=0;whiteSpace=wrap;html=1;" vertex="1" parent="1">
          <mxGeometry x="70" y="215" width="120" height="29" as="geometry" />
        </mxCell>
        <mxCell id="97wuvhwzOYMbEKujjGsB-27" value="cal方法的栈帧" style="text;html=1;strokeColor=none;fillColor=none;align=center;verticalAlign=middle;whiteSpace=wrap;rounded=0;" vertex="1" parent="1">
          <mxGeometry x="85" y="138" width="90" height="30" as="geometry" />
        </mxCell>
        <mxCell id="97wuvhwzOYMbEKujjGsB-28" value="main方法的栈帧" style="rounded=0;whiteSpace=wrap;html=1;fillColor=#dae8fc;strokeColor=#6c8ebf;verticalAlign=top;" vertex="1" parent="1">
          <mxGeometry x="60" y="365" width="140" height="140" as="geometry" />
        </mxCell>
        <mxCell id="97wuvhwzOYMbEKujjGsB-29" value="" style="rounded=0;whiteSpace=wrap;html=1;" vertex="1" parent="1">
          <mxGeometry x="300" y="64" width="160" height="136" as="geometry" />
        </mxCell>
        <mxCell id="97wuvhwzOYMbEKujjGsB-30" value="" style="rounded=0;whiteSpace=wrap;html=1;" vertex="1" parent="1">
          <mxGeometry x="300" y="225" width="160" height="125" as="geometry" />
        </mxCell>
        <mxCell id="97wuvhwzOYMbEKujjGsB-31" value="a = 10086" style="rounded=1;whiteSpace=wrap;html=1;" vertex="1" parent="1">
          <mxGeometry x="320" y="79" width="120" height="26" as="geometry" />
        </mxCell>
        <mxCell id="97wuvhwzOYMbEKujjGsB-32" value="b = 10000" style="rounded=1;whiteSpace=wrap;html=1;" vertex="1" parent="1">
          <mxGeometry x="320" y="120" width="120" height="26" as="geometry" />
        </mxCell>
        <mxCell id="97wuvhwzOYMbEKujjGsB-33" value="c = 20086" style="rounded=1;whiteSpace=wrap;html=1;" vertex="1" parent="1">
          <mxGeometry x="320" y="165" width="120" height="26" as="geometry" />
        </mxCell>
        <mxCell id="97wuvhwzOYMbEKujjGsB-34" value="20086" style="rounded=1;whiteSpace=wrap;html=1;" vertex="1" parent="1">
          <mxGeometry x="320" y="262" width="120" height="26" as="geometry" />
        </mxCell>
        <mxCell id="97wuvhwzOYMbEKujjGsB-35" style="edgeStyle=orthogonalEdgeStyle;rounded=0;orthogonalLoop=1;jettySize=auto;html=1;exitX=1;exitY=0.5;exitDx=0;exitDy=0;entryX=0;entryY=0.5;entryDx=0;entryDy=0;curved=1;" edge="1" parent="1" source="97wuvhwzOYMbEKujjGsB-36" target="97wuvhwzOYMbEKujjGsB-37">
          <mxGeometry relative="1" as="geometry" />
        </mxCell>
        <mxCell id="97wuvhwzOYMbEKujjGsB-36" value="局部变量表" style="rounded=0;whiteSpace=wrap;html=1;fillColor=#ffe6cc;strokeColor=#d79b00;" vertex="1" parent="1">
          <mxGeometry x="70" y="400.5" width="120" height="29" as="geometry" />
        </mxCell>
        <mxCell id="97wuvhwzOYMbEKujjGsB-37" value="" style="rounded=0;whiteSpace=wrap;html=1;" vertex="1" parent="1">
          <mxGeometry x="300" y="395" width="160" height="125" as="geometry" />
        </mxCell>
        <mxCell id="97wuvhwzOYMbEKujjGsB-38" style="edgeStyle=orthogonalEdgeStyle;rounded=0;orthogonalLoop=1;jettySize=auto;html=1;exitX=1;exitY=0.5;exitDx=0;exitDy=0;entryX=0;entryY=0.5;entryDx=0;entryDy=0;curved=1;" edge="1" parent="1" source="97wuvhwzOYMbEKujjGsB-39" target="97wuvhwzOYMbEKujjGsB-40">
          <mxGeometry relative="1" as="geometry" />
        </mxCell>
        <mxCell id="97wuvhwzOYMbEKujjGsB-39" value="demo = 0x0001" style="rounded=1;whiteSpace=wrap;html=1;" vertex="1" parent="1">
          <mxGeometry x="320" y="429.5" width="120" height="26" as="geometry" />
        </mxCell>
        <mxCell id="97wuvhwzOYMbEKujjGsB-40" value="demo对象&lt;div&gt;内存地址0x0001&lt;/div&gt;" style="rounded=1;whiteSpace=wrap;html=1;" vertex="1" parent="1">
          <mxGeometry x="560" y="319.5" width="80" height="51" as="geometry" />
        </mxCell>
      </root>
    </mxGraphModel>
  </diagram>
</mxfile>
